<mxfile host="Electron" modified="2023-08-09T05:46:17.575Z" agent="Mozilla/5.0 (X11; Linux x86_64) AppleWebKit/537.36 (KHTML, like Gecko) draw.io/21.6.1 Chrome/112.0.5615.204 Electron/24.6.1 Safari/537.36" etag="4swwJTDSzkE5mqAQQOpp" version="21.6.1" type="device">
  <diagram name="Page-1" id="x7HJZADq0CSXsbM1HGX_">
    <mxGraphModel dx="603" dy="376" grid="1" gridSize="10" guides="1" tooltips="1" connect="1" arrows="1" fold="1" page="1" pageScale="1" pageWidth="850" pageHeight="1100" math="0" shadow="0">
      <root>
        <mxCell id="0" />
        <mxCell id="1" parent="0" />
        <mxCell id="tSf_uYO7oBgnf_22QolY-1" value="Izvorni kod &lt;br style=&quot;font-size: 16px;&quot;&gt;(.cpp, .h)" style="rounded=0;whiteSpace=wrap;html=1;fontSize=16;" parent="1" vertex="1">
          <mxGeometry x="40" y="300" width="120" height="60" as="geometry" />
        </mxCell>
        <mxCell id="tSf_uYO7oBgnf_22QolY-2" value="LLVM IR&lt;br style=&quot;font-size: 16px;&quot;&gt;(.ll)" style="rounded=0;whiteSpace=wrap;html=1;fontSize=16;" parent="1" vertex="1">
          <mxGeometry x="200" y="300" width="120" height="60" as="geometry" />
        </mxCell>
        <mxCell id="tSf_uYO7oBgnf_22QolY-3" value="LLVM MIR&lt;br style=&quot;font-size: 16px;&quot;&gt;(.mir)" style="rounded=0;whiteSpace=wrap;html=1;fontSize=16;" parent="1" vertex="1">
          <mxGeometry x="360" y="300" width="120" height="60" as="geometry" />
        </mxCell>
        <mxCell id="tSf_uYO7oBgnf_22QolY-4" value="" style="endArrow=classic;html=1;rounded=0;" parent="1" source="tSf_uYO7oBgnf_22QolY-1" target="tSf_uYO7oBgnf_22QolY-2" edge="1">
          <mxGeometry relative="1" as="geometry">
            <mxPoint x="150" y="329.5" as="sourcePoint" />
            <mxPoint x="230" y="330" as="targetPoint" />
          </mxGeometry>
        </mxCell>
        <mxCell id="tSf_uYO7oBgnf_22QolY-5" value="clang" style="edgeLabel;resizable=0;html=1;align=center;verticalAlign=middle;fontSize=12;" parent="tSf_uYO7oBgnf_22QolY-4" connectable="0" vertex="1">
          <mxGeometry relative="1" as="geometry">
            <mxPoint x="-4" y="-9" as="offset" />
          </mxGeometry>
        </mxCell>
        <mxCell id="tSf_uYO7oBgnf_22QolY-7" value="" style="endArrow=classic;html=1;rounded=0;" parent="1" source="tSf_uYO7oBgnf_22QolY-2" target="tSf_uYO7oBgnf_22QolY-3" edge="1">
          <mxGeometry relative="1" as="geometry">
            <mxPoint x="300" y="400" as="sourcePoint" />
            <mxPoint x="400" y="400" as="targetPoint" />
          </mxGeometry>
        </mxCell>
        <mxCell id="tSf_uYO7oBgnf_22QolY-8" value="llc" style="edgeLabel;resizable=0;html=1;align=center;verticalAlign=middle;fontSize=16;" parent="tSf_uYO7oBgnf_22QolY-7" connectable="0" vertex="1">
          <mxGeometry relative="1" as="geometry">
            <mxPoint y="-11" as="offset" />
          </mxGeometry>
        </mxCell>
        <mxCell id="tSf_uYO7oBgnf_22QolY-10" value="" style="curved=1;endArrow=classic;html=1;rounded=0;" parent="1" source="tSf_uYO7oBgnf_22QolY-2" target="tSf_uYO7oBgnf_22QolY-2" edge="1">
          <mxGeometry width="50" height="50" relative="1" as="geometry">
            <mxPoint x="220" y="270" as="sourcePoint" />
            <mxPoint x="280" y="230" as="targetPoint" />
            <Array as="points">
              <mxPoint x="230" y="280" />
              <mxPoint x="240" y="260" />
              <mxPoint x="280" y="260" />
              <mxPoint x="290" y="280" />
            </Array>
          </mxGeometry>
        </mxCell>
        <mxCell id="tSf_uYO7oBgnf_22QolY-12" value="opt" style="text;html=1;strokeColor=none;fillColor=none;align=center;verticalAlign=middle;whiteSpace=wrap;rounded=0;fontSize=16;" parent="1" vertex="1">
          <mxGeometry x="230" y="238" width="60" height="30" as="geometry" />
        </mxCell>
        <mxCell id="tSf_uYO7oBgnf_22QolY-13" value="" style="curved=1;endArrow=classic;html=1;rounded=0;" parent="1" edge="1">
          <mxGeometry width="50" height="50" relative="1" as="geometry">
            <mxPoint x="402" y="300" as="sourcePoint" />
            <mxPoint x="438" y="300" as="targetPoint" />
            <Array as="points">
              <mxPoint x="390" y="280" />
              <mxPoint x="400" y="260" />
              <mxPoint x="440" y="260" />
              <mxPoint x="450" y="280" />
            </Array>
          </mxGeometry>
        </mxCell>
        <mxCell id="tSf_uYO7oBgnf_22QolY-14" value="llc" style="text;html=1;strokeColor=none;fillColor=none;align=center;verticalAlign=middle;whiteSpace=wrap;rounded=0;fontSize=16;" parent="1" vertex="1">
          <mxGeometry x="390" y="238" width="60" height="30" as="geometry" />
        </mxCell>
        <mxCell id="tSf_uYO7oBgnf_22QolY-15" value="Objektni Kod&lt;br style=&quot;font-size: 16px;&quot;&gt;(.o)" style="rounded=0;whiteSpace=wrap;html=1;fontSize=16;" parent="1" vertex="1">
          <mxGeometry x="520" y="300" width="120" height="60" as="geometry" />
        </mxCell>
        <mxCell id="tSf_uYO7oBgnf_22QolY-16" value="" style="endArrow=classic;html=1;rounded=0;" parent="1" source="tSf_uYO7oBgnf_22QolY-3" target="tSf_uYO7oBgnf_22QolY-15" edge="1">
          <mxGeometry relative="1" as="geometry">
            <mxPoint x="490" y="320" as="sourcePoint" />
            <mxPoint x="370" y="340" as="targetPoint" />
          </mxGeometry>
        </mxCell>
        <mxCell id="tSf_uYO7oBgnf_22QolY-17" value="llc" style="edgeLabel;resizable=0;html=1;align=center;verticalAlign=middle;fontSize=16;" parent="tSf_uYO7oBgnf_22QolY-16" connectable="0" vertex="1">
          <mxGeometry relative="1" as="geometry">
            <mxPoint y="-11" as="offset" />
          </mxGeometry>
        </mxCell>
        <mxCell id="tSf_uYO7oBgnf_22QolY-18" value="IzvrÅ¡ni Fajl" style="rounded=0;whiteSpace=wrap;html=1;fontSize=16;" parent="1" vertex="1">
          <mxGeometry x="680" y="300" width="120" height="60" as="geometry" />
        </mxCell>
        <mxCell id="tSf_uYO7oBgnf_22QolY-19" value="" style="endArrow=classic;html=1;rounded=0;" parent="1" source="tSf_uYO7oBgnf_22QolY-15" target="tSf_uYO7oBgnf_22QolY-18" edge="1">
          <mxGeometry relative="1" as="geometry">
            <mxPoint x="570" y="270" as="sourcePoint" />
            <mxPoint x="670" y="270" as="targetPoint" />
          </mxGeometry>
        </mxCell>
        <mxCell id="tSf_uYO7oBgnf_22QolY-20" value="lld" style="edgeLabel;resizable=0;html=1;align=center;verticalAlign=middle;fontSize=16;" parent="tSf_uYO7oBgnf_22QolY-19" connectable="0" vertex="1">
          <mxGeometry relative="1" as="geometry">
            <mxPoint y="-11" as="offset" />
          </mxGeometry>
        </mxCell>
      </root>
    </mxGraphModel>
  </diagram>
</mxfile>
